<?xml version="1.0" ?><!DOCTYPE svg  PUBLIC '-//W3C//DTD SVG 1.1//EN'  'http://www.w3.org/Graphics/SVG/1.1/DTD/svg11.dtd'><svg enable-background="new 0.107 -9.567 141.732 141.732" height="141.732px" id="Livello_1" version="1.1" viewBox="0.107 -9.567 141.732 141.732" width="141.732px" xml:space="preserve" xmlns="http://www.w3.org/2000/svg" xmlns:xlink="http://www.w3.org/1999/xlink"><g id="Livello_54"><path d="M29.116,115.383h13.438v-11.996H29.116V115.383z M99.393,115.383h13.438v-11.996H99.393V115.383z M13.438,48.19h6.756   L4.481,70.695h13.168L0,97.465h29.115v2.213L46.64,71.531H31.84l17.662-26.774h-7.594l6.885-11.662L35.834,12.356L13.438,48.19z    M93.152,33.092l6.885,11.662h-7.594l17.662,26.774H95.303l17.524,28.146v-2.213h29.117l-17.65-26.771h13.171L121.752,48.19h6.756   l-22.396-35.834L93.152,33.092z M45.95,42.643h7.592L35.879,69.42h14.806l-19.836,31.854h32.725v21.323h15.104v-21.323h32.727   L91.561,69.42h14.803L88.701,42.643h7.592L71.122,0L45.95,42.643z"/></g><g id="Livello_1_1_"/></svg>