<svg width="141.732" height="141.732" xmlns="http://www.w3.org/2000/svg">

 <g>
  <title>background</title>
  <rect fill="none" id="canvas_background" height="402" width="582" y="-1" x="-1"/>
 </g>
 <g>
  <title>Layer 1</title>
  <path fill="#ffffff" id="svg_1" d="m29.116,115.236977l13.438,0l0,-11.996l-13.438,0l0,11.996zm70.277,0l13.438,0l0,-11.996l-13.438,0l0,11.996zm-85.955,-67.193l6.756,0l-15.713,22.505l13.168,0l-17.649,26.77l29.115,0l0,2.213l17.525,-28.147l-14.8,0l17.662,-26.774l-7.594,0l6.885,-11.662l-12.959,-20.739l-22.396,35.834zm79.714,-15.098l6.885,11.662l-7.594,0l17.662,26.774l-14.802,0l17.524,28.146l0,-2.213l29.117,0l-17.65,-26.771l13.171,0l-15.713,-22.5l6.756,0l-22.396,-35.834l-12.96,20.736zm-47.202,9.551l7.592,0l-17.663,26.777l14.806,0l-19.836,31.854l32.725,0l0,21.323l15.104,0l0,-21.323l32.727,0l-19.844,-31.854l14.803,0l-17.663,-26.777l7.592,0l-25.171,-42.643l-25.172,42.643z"/>
 </g>
</svg>