<?xml version="1.0" standalone="no"?>
<!DOCTYPE svg PUBLIC "-//W3C//DTD SVG 20010904//EN"
 "http://www.w3.org/TR/2001/REC-SVG-20010904/DTD/svg10.dtd">
<svg version="1.0" xmlns="http://www.w3.org/2000/svg"
 width="596.000000pt" height="596.000000pt" viewBox="0 0 596.000000 596.000000"
 preserveAspectRatio="xMidYMid meet">
<metadata>
Created by potrace 1.14, written by Peter Selinger 2001-2017
</metadata>
<g transform="translate(0.000000,596.000000) scale(0.100000,-0.100000)"
fill="#000000" stroke="none">
<path d="M2790 5293 c-19 -2 -73 -7 -120 -13 -47 -6 -105 -13 -130 -15 -25 -3
-52 -7 -60 -10 -8 -2 -35 -7 -60 -10 -51 -7 -161 -32 -205 -45 -29 -9 -169
-51 -190 -56 -48 -13 -223 -86 -325 -136 -69 -34 -128 -61 -132 -60 -3 1 -12
-5 -18 -13 -7 -8 -16 -15 -21 -15 -11 0 -174 -100 -244 -149 -240 -170 -475
-390 -635 -596 -30 -38 -63 -79 -72 -89 -10 -11 -18 -25 -18 -32 0 -7 -4 -14
-8 -16 -17 -7 -145 -212 -212 -340 -38 -73 -85 -176 -106 -228 -20 -52 -39
-99 -42 -105 -4 -5 -7 -12 -7 -15 -1 -3 -17 -57 -37 -120 -32 -102 -70 -249
-82 -320 -3 -14 -5 -27 -6 -30 -2 -3 -2 -9 -1 -13 1 -5 -3 -25 -8 -45 -6 -20
-13 -64 -16 -97 -3 -33 -7 -71 -10 -85 -17 -89 -25 -341 -11 -359 7 -10 8 -13
0 -8 -7 4 -11 -11 -11 -43 -1 -33 3 -48 10 -43 5 3 7 1 4 -4 -4 -6 -2 -37 4
-69 6 -33 13 -86 14 -119 8 -141 14 -198 24 -208 5 -5 7 -15 4 -22 -2 -7 3
-27 11 -44 9 -16 16 -40 16 -53 0 -13 7 -43 16 -68 9 -25 18 -63 21 -85 9 -73
10 -80 18 -102 4 -13 10 -23 14 -23 4 0 8 -14 9 -31 2 -31 22 -104 45 -163 27
-72 130 -255 164 -291 52 -57 117 -107 188 -146 33 -18 62 -36 65 -40 8 -11
89 -50 157 -75 l63 -24 1927 0 c1260 0 1937 3 1957 10 17 6 65 21 106 35 274
89 408 149 478 214 42 39 176 142 242 186 25 17 47 33 48 38 2 4 10 7 17 7 7
0 23 14 36 31 13 17 33 43 45 57 26 34 96 206 100 247 1 17 12 58 22 90 11 33
23 85 25 115 3 30 11 78 17 105 7 28 13 79 15 115 2 36 10 84 19 108 8 23 12
42 8 42 -4 0 -1 4 7 9 13 8 13 12 0 27 -9 11 -9 15 -1 10 8 -5 12 -1 12 13 0
10 -6 22 -12 24 -8 3 -6 6 5 6 21 1 22 10 2 39 -15 20 -15 21 2 15 16 -6 16
-5 4 10 -7 9 -9 17 -5 17 13 0 11 63 -1 72 -6 5 -6 8 1 8 11 0 11 39 -1 210
-17 251 -42 414 -86 577 -11 40 -22 82 -24 94 -6 32 -84 258 -107 309 -11 25
-27 61 -35 80 -29 68 -67 145 -89 180 -11 19 -21 37 -21 40 0 3 -12 24 -26 47
-15 24 -27 47 -27 53 0 5 -3 10 -8 10 -4 0 -13 12 -19 28 -12 25 -146 220
-175 252 -7 8 -31 37 -53 65 -113 144 -348 370 -501 482 -16 12 -49 37 -74 55
-124 94 -407 250 -570 316 -129 51 -189 74 -192 72 -2 -1 -21 5 -43 14 -45 17
-200 60 -260 72 -22 4 -44 8 -50 10 -5 1 -28 5 -50 9 -22 3 -45 8 -52 10 -6 2
-38 7 -70 10 -32 3 -67 8 -78 10 -71 14 -406 26 -525 18z"/>
</g>
</svg>
